<?xml version="1.0" encoding="UTF-8" standalone="no"?>
<!-- Created with Inkscape (http://www.inkscape.org/) -->

<svg
   version="1.1"
   id="svg1049"
   width="217"
   height="232"
   viewBox="0 0 217 232"
   sodipodi:docname="logo lol 2.svg"
   inkscape:version="1.2.1 (9c6d41e410, 2022-07-14)"
   xmlns:inkscape="http://www.inkscape.org/namespaces/inkscape"
   xmlns:sodipodi="http://sodipodi.sourceforge.net/DTD/sodipodi-0.dtd"
   xmlns="http://www.w3.org/2000/svg"
   xmlns:svg="http://www.w3.org/2000/svg">
  <defs
     id="defs1053" />
  <sodipodi:namedview
     id="namedview1051"
     pagecolor="#ffffff"
     bordercolor="#000000"
     borderopacity="0.25"
     inkscape:showpageshadow="2"
     inkscape:pageopacity="0.0"
     inkscape:pagecheckerboard="0"
     inkscape:deskcolor="#d1d1d1"
     showgrid="false"
     inkscape:zoom="2.56"
     inkscape:cx="192.96875"
     inkscape:cy="103.51563"
     inkscape:window-width="1600"
     inkscape:window-height="837"
     inkscape:window-x="-8"
     inkscape:window-y="-8"
     inkscape:window-maximized="1"
     inkscape:current-layer="g1055" />
  <g
     inkscape:groupmode="layer"
     inkscape:label="Image"
     id="g1055">
    <rect
       style="fill:#000000;fill-opacity:1;stroke-width:0.926666"
       id="rect5672"
       width="241.01562"
       height="244.53125"
       x="-8.984375"
       y="-3.125" />
    <g
       id="g4880"
       style="fill:#ffffff;fill-opacity:1">
      <path
         style="fill:#ffffff;fill-opacity:1"
         d="M 24.15142,23.785489 23.785489,209.67823 10.977918,232.36593 153.69085,231.63407 165.0347,187.35647 72.820189,186.99054 73.18612,0.3659306 12.807571,1.0977918 Z"
         id="path1580" />
      <path
         style="fill:#ffffff;fill-opacity:1"
         d="m 82.700315,45.009464 0.731862,131.369086 84.529973,1.09779 C 231.29851,93.732677 144.17002,24.179332 82.700315,45.009464 Z"
         id="path1744"
         sodipodi:nodetypes="cccc" />
      <path
         style="fill:#ffffff;fill-opacity:1"
         d="M 12.44164,71.722397 C -0.79789824,102.83449 -7.0919994,134.93879 13.539432,170.88959 Z"
         id="path1842"
         sodipodi:nodetypes="ccc" />
      <path
         style="fill:#ffffff;fill-opacity:1"
         d="M 83.432177,33.84858 82.883281,17.381703"
         id="path1902" />
      <path
         style="fill:#ffffff;fill-opacity:1"
         d="M 83.002183,33.974271 83.14029,17.67767 c 30.33616,-5.236186 33.70883,-2.315669 49.71845,-0.276214 16.24928,3.01005 30.39516,11.97013 38.53179,16.987136 10.12783,7.733981 18.59838,16.20453 25.41165,25.41165 5.61748,7.883738 9.89399,15.409958 12.56772,22.925727 5.35801,11.375221 6.10664,24.845611 7.59587,37.979371 -1.21665,12.42603 -1.56138,25.01058 -6.62912,36.73641 -3.64644,9.3695 -8.09643,18.2033 -13.94879,26.10218 -10.2644,13.81899 -17.93049,19.47189 -25.68786,25.41165 l 7.73398,-29.14053 c 5.49008,-6.14376 10.71317,-13.88945 15.46796,-24.44491 3.77334,-9.28788 5.79968,-18.79413 6.62912,-28.45 0.31201,-8.45521 0.16895,-17.10545 -2.0716,-26.65461 -2.72389,-9.567611 -6.48389,-18.099112 -11.04854,-25.825968 -4.24356,-6.960977 -9.2104,-13.611977 -16.02039,-19.473058 -5.25836,-4.051133 -9.996,-8.102265 -16.98713,-12.153398 -9.96238,-5.639017 -21.34193,-9.506574 -34.25049,-11.462864 -9.42126,-0.29466 -14.60235,-2.263068 -37.150727,2.624029 z"
         id="path2686"
         sodipodi:nodetypes="ccccccccccccccccccc" />
    </g>
  </g>
</svg>
