<?xml version="1.0" encoding="UTF-8" standalone="no"?>
<!-- Created with Inkscape (http://www.inkscape.org/) -->

<svg
   version="1.1"
   id="svg2049"
   width="640"
   height="255"
   viewBox="0 0 639.99996 255"
   sodipodi:docname="LogoR2.svg"
   inkscape:version="1.2.1 (9c6d41e410, 2022-07-14)"
   xmlns:inkscape="http://www.inkscape.org/namespaces/inkscape"
   xmlns:sodipodi="http://sodipodi.sourceforge.net/DTD/sodipodi-0.dtd"
   xmlns="http://www.w3.org/2000/svg"
   xmlns:svg="http://www.w3.org/2000/svg">
  <defs
     id="defs2053" />
  <sodipodi:namedview
     id="namedview2051"
     pagecolor="#ffffff"
     bordercolor="#000000"
     borderopacity="0.25"
     inkscape:showpageshadow="2"
     inkscape:pageopacity="0.0"
     inkscape:pagecheckerboard="0"
     inkscape:deskcolor="#d1d1d1"
     showgrid="false"
     showguides="false"
     inkscape:zoom="1.5103785"
     inkscape:cx="266.82053"
     inkscape:cy="146.32094"
     inkscape:window-width="1920"
     inkscape:window-height="1017"
     inkscape:window-x="-8"
     inkscape:window-y="-8"
     inkscape:window-maximized="1"
     inkscape:current-layer="g2055" />
  <g
     inkscape:groupmode="layer"
     inkscape:label="Image"
     id="g2055">
    <path
       style="fill:#ffffff;stroke:#000000;stroke-width:4;fill-opacity:1;stroke-opacity:1"
       d="m 269.50378,132.69262 h 62.89814 v 22.17987 h -39.39409 v 19.86257 h 36.08367 l -5.71209,21.31778 h -30.70263 v 23.04197 h 40.05619 v 22.51091 h -62.89814 z"
       id="path2061-0" />
    <path
       style="fill:#ffffff;fill-opacity:1;stroke:#000000;stroke-width:4;stroke-dasharray:none;stroke-opacity:1"
       d="m 256.78142,160.51959 c -22.15739,-38.20836 -78.33234,-35.25455 -96.33347,5.95877 -21.7664,54.10847 33.83099,78.69483 47.33913,76.80194 44.27804,1.69348 56.18603,-38.20032 54.29103,-59.25667 h -51.31164 l -10.09638,17.48745 h 38.89711 c -6.40166,21.57311 -45.63256,33.34744 -59.58772,-0.60426 -12.36103,-25.25789 24.58004,-68.95461 57.9325,-30.78699 z"
       id="path7057-6"
       sodipodi:nodetypes="cccccccccc" />
    <path
       style="fill:#ffffff;stroke:#000000;stroke-width:4;fill-opacity:1;stroke-opacity:1"
       d="M 85.046661,134.56528 H 147.9448 v 22.17987 h -39.39409 v 19.86257 h 36.08367 l -5.71209,21.31778 h -30.70263 v 23.04197 h 40.05619 v 22.51091 H 85.377711 Z"
       id="path2061-8" />
    <path
       style="fill:#ffffff;stroke:#000000;stroke-width:4;fill-opacity:1;stroke-opacity:1"
       d="m 72.049951,243.54761 -65.21543,-0.66208 5.29669,-10.59337 0.99312,-85.7401 -5.95877,-11.91754 28.80072,1.32417 -0.33104,85.40905 41.7114,0.66209 z"
       id="path2059-7" />
    <path
       style="fill:#ffffff;stroke:#000000;stroke-width:4;fill-opacity:1;stroke-opacity:1"
       d="m 468.92523,9.103678 h 62.89814 V 31.28355 h -39.39409 v 19.86256 h 36.08367 l -5.71209,21.31778 h -30.70263 v 23.04197 h 40.05619 v 22.51091 h -62.89814 z"
       id="path2061-7" />
    <path
       style="fill:#ffffff;stroke:#000000;stroke-width:4;fill-opacity:1;stroke-opacity:1"
       d="m 72.498381,115.53395 -65.21544,-0.66208 5.29669,-10.59337 0.99312,-85.7401 -5.95877,-11.917543 28.80073,1.324172 -0.33104,85.409051 41.7114,0.66209 z"
       id="path2059" />
    <path
       style="fill:#ffffff;stroke:#000000;stroke-width:4;fill-opacity:1;stroke-opacity:1"
       d="M 86.733221,7.282943 H 149.63136 V 29.462814 H 110.23727 V 49.32538 h 36.08367 l -5.71209,21.31778 h -30.70263 v 23.04197 h 40.05619 v 22.51091 H 87.064271 Z"
       id="path2061" />
    <path
       style="fill:#ffffff;fill-opacity:1;stroke:#000000;stroke-width:4;stroke-opacity:1"
       d="m 220.47453,8.276072 44.0287,106.595798 h -24.49717 l -8.27607,-20.19362 h -41.7114 L 181.41148,115.865 H 156.91431 L 195.64632,20.524657 188.52179,8.184611 Z"
       id="path2063" />
    <path
       style="fill:#ffffff;fill-opacity:1;stroke:#000000;stroke-width:4;stroke-opacity:1"
       d="m 211.20533,34.7595 14.23485,38.40097 h -29.13177 z"
       id="path3679" />
    <path
       style="fill:#ffffff;fill-opacity:1;stroke:#000000;stroke-width:4;stroke-dasharray:none;stroke-opacity:1"
       d="m 358.85044,32.77324 c -22.15739,-38.208356 -78.33234,-35.254549 -96.33347,5.95877 -21.7664,54.10847 33.83099,78.69483 47.33913,76.80194 44.27804,1.69348 56.18603,-38.20032 54.29103,-59.25667 h -51.31164 l -10.09638,17.48745 h 38.89711 C 335.23456,95.33784 296.00366,107.11217 282.0485,73.16047 269.68747,47.90258 306.62854,4.205858 339.981,42.37348 Z"
       id="path7057"
       sodipodi:nodetypes="cccccccccc" />
    <circle
       style="fill:#ffffff;fill-opacity:1;stroke:#000000;stroke-width:4;stroke-dasharray:none;stroke-opacity:1"
       id="path7135"
       cx="563.35217"
       cy="61.491199"
       r="26.400667" />
    <ellipse
       style="fill:#ffffff;fill-opacity:1;stroke:#000000;stroke-width:4;stroke-dasharray:none;stroke-opacity:1"
       id="path7191"
       cx="563.84875"
       cy="61.16016"
       rx="12.331346"
       ry="11.66926" />
    <path
       style="fill:#ffffff;fill-opacity:1;stroke:#000000;stroke-width:4;stroke-dasharray:none;stroke-opacity:1"
       d="M 605.31184,85.7401 V 69.35348 h 12.91067 l 2.9388,-10.96776 h -16.8426 V 48.33226 h 19.03497 V 36.24919 h -29.79386 v 49.15986 z"
       id="path7195" />
    <path
       style="fill:#ffffff;fill-opacity:1;stroke:#000000;stroke-width:4;stroke-dasharray:none;stroke-opacity:1"
       d="m 345.59103,240.98818 h 22.47193 v -72.56562 l 51.03002,73.50195 h 21.5356 V 135.18283 h -21.5356 v 71.62929 L 369.46746,134.2465 h -29.02625 l 5.86437,10.15738 z"
       id="path8398" />
    <path
       style="fill:#ffffff;fill-opacity:1;stroke:#000000;stroke-width:4;stroke-dasharray:none;stroke-opacity:1"
       d="m 452.80088,133.77833 v 109.08251 l 47.28469,-0.93633 c 43.84817,-12.12757 65.15006,-87.08056 -6.08615,-108.14618 z"
       id="path8400"
       sodipodi:nodetypes="ccccc" />
    <path
       style="fill:#ffffff;fill-opacity:1;stroke:#000000;stroke-width:4;stroke-dasharray:none;stroke-opacity:1"
       d="m 475.37752,155.2591 v 65.21544 h 16.55215 c 12.86777,3.89999 51.23457,-42.27356 1.32417,-64.8844 z"
       id="path8447"
       sodipodi:nodetypes="ccccc" />
    <path
       style="fill:#ffffff;fill-opacity:1;stroke:#050505;stroke-width:4;stroke-dasharray:none;stroke-opacity:1"
       d="m 603.49111,165.19038 17.63079,-10.17914 c -5.15416,-18.51774 -48.46478,-40.5901 -71.59078,-0.33104 -6.81895,29.64206 16.44264,41.93591 24.39218,42.24849 9.27114,1.21726 18.87331,0.54958 27.48236,9.43883 2.18394,7.84734 0.11411,12.90512 -10.90442,17.2318 -19.98865,-1.8884 -23.58915,-9.23952 -28.1699,-16.26389 l -17.22712,9.94608 c 4.89382,10.13682 6.31987,16.48084 23.67253,23.67253 10.87722,3.29494 25.21954,3.72573 37.03166,0 8.04433,-5.02958 16.50141,-9.02117 20.24567,-33.83107 -2.2376,-10.63139 -10.58213,-24.30212 -26.78557,-27.44766 -11.20393,-4.46594 -27.55061,-1.01236 -29.15265,-14.98496 9.98757,-22.8718 32.22638,-7.03285 33.37525,0.50003 z"
       id="path8449"
       sodipodi:nodetypes="cccccccccccccc" />
    <path
       style="fill:#ffffff;fill-opacity:1;stroke:#000000;stroke-width:4;stroke-dasharray:none;stroke-opacity:1"
       d="m 372.51053,7.139623 24.11052,-0.234083 0.23408,67.64988 c 4.03939,28.99992 37.30654,24.01805 39.0918,0.46817 L 435.24468,7.607788 459.35519,7.373705 458.88703,82.51423 c -4.19883,36.88553 -68.21318,53.81343 -86.14241,-0.70224 z"
       id="path8543"
       sodipodi:nodetypes="ccccccccc" />
  </g>
</svg>
