<?xml version="1.0" encoding="UTF-8" standalone="no"?>
<!-- Created with Inkscape (http://www.inkscape.org/) -->

<svg
   version="1.1"
   id="svg2049"
   width="640"
   height="255"
   viewBox="0 0 639.99996 255"
   sodipodi:docname="LogoR1.svg"
   inkscape:version="1.2.1 (9c6d41e410, 2022-07-14)"
   xmlns:inkscape="http://www.inkscape.org/namespaces/inkscape"
   xmlns:sodipodi="http://sodipodi.sourceforge.net/DTD/sodipodi-0.dtd"
   xmlns="http://www.w3.org/2000/svg"
   xmlns:svg="http://www.w3.org/2000/svg">
  <defs
     id="defs2053" />
  <sodipodi:namedview
     id="namedview2051"
     pagecolor="#ffffff"
     bordercolor="#000000"
     borderopacity="0.25"
     inkscape:showpageshadow="2"
     inkscape:pageopacity="0.0"
     inkscape:pagecheckerboard="0"
     inkscape:deskcolor="#d1d1d1"
     showgrid="false"
     showguides="false"
     inkscape:zoom="1.5103785"
     inkscape:cx="282.71059"
     inkscape:cy="146.32094"
     inkscape:window-width="1920"
     inkscape:window-height="1017"
     inkscape:window-x="-8"
     inkscape:window-y="-8"
     inkscape:window-maximized="1"
     inkscape:current-layer="g2055" />
  <g
     inkscape:groupmode="layer"
     inkscape:label="Image"
     id="g2055">
    <g
       id="g10015"
       transform="translate(-94.016169,-67.53274)">
      <path
         style="fill:#171342;stroke:#ffffff;stroke-width:4"
         d="m 363.51995,200.22536 h 62.89814 v 22.17987 H 387.024 v 19.86257 h 36.08367 l -5.71209,21.31778 h -30.70263 v 23.04197 h 40.05619 v 22.51091 H 363.851 Z"
         id="path2061-0" />
      <path
         style="fill:#171342;fill-opacity:1;stroke:#ffffff;stroke-width:4;stroke-dasharray:none"
         d="m 350.79759,228.05233 c -22.15739,-38.20836 -78.33234,-35.25455 -96.33347,5.95877 -21.7664,54.10847 33.83099,78.69483 47.33913,76.80194 44.27804,1.69348 56.18603,-38.20032 54.29103,-59.25667 h -51.31164 l -10.09638,17.48745 h 38.89711 c -6.40166,21.57311 -45.63256,33.34744 -59.58772,-0.60426 -12.36103,-25.25789 24.58004,-68.95461 57.9325,-30.78699 z"
         id="path7057-6"
         sodipodi:nodetypes="cccccccccc" />
      <path
         style="fill:#171342;stroke:#ffffff;stroke-width:4"
         d="m 179.06283,202.09802 h 62.89814 v 22.17987 h -39.39409 v 19.86257 h 36.08367 l -5.71209,21.31778 h -30.70263 v 23.04197 h 40.05619 v 22.51091 h -62.89814 z"
         id="path2061-8" />
      <path
         style="fill:#171342;stroke:#ffffff;stroke-width:4"
         d="m 166.06612,311.08035 -65.21543,-0.66208 5.29669,-10.59337 0.99312,-85.7401 -5.95877,-11.91754 28.80072,1.32417 -0.33104,85.40905 41.7114,0.66209 z"
         id="path2059-7" />
      <path
         style="fill:#171342;stroke:#ffffff;stroke-width:4"
         d="m 562.9414,76.636418 h 62.89814 V 98.81629 h -39.39409 v 19.86256 h 36.08367 l -5.71209,21.31778 H 586.1144 v 23.04197 h 40.05619 v 22.51091 h -62.89814 z"
         id="path2061-7" />
      <path
         style="fill:#171342;stroke:#ffffff;stroke-width:4"
         d="m 166.51455,183.06669 -65.21544,-0.66208 5.29669,-10.59337 0.99312,-85.7401 -5.95877,-11.917543 28.80073,1.324172 -0.33104,85.409051 41.7114,0.66209 z"
         id="path2059" />
      <path
         style="fill:#171342;stroke:#ffffff;stroke-width:4"
         d="m 180.74939,74.815683 h 62.89814 v 22.179871 h -39.39409 v 19.862566 h 36.08367 l -5.71209,21.31778 h -30.70263 v 23.04197 h 40.05619 v 22.51091 h -62.89814 z"
         id="path2061" />
      <path
         style="fill:#171342;fill-opacity:1;stroke:#ffffff;stroke-width:4"
         d="m 314.4907,75.808812 44.0287,106.595798 h -24.49717 l -8.27607,-20.19362 h -41.7114 l -8.60711,21.18675 h -24.49717 l 38.73201,-95.340343 -7.12453,-12.340046 z"
         id="path2063" />
      <path
         style="fill:#ffffff;fill-opacity:1;stroke:#ffffff;stroke-width:4"
         d="m 305.2215,102.29224 14.23485,38.40097 h -29.13177 z"
         id="path3679" />
      <path
         style="fill:#171342;fill-opacity:1;stroke:#ffffff;stroke-width:4;stroke-dasharray:none"
         d="m 452.86661,100.30598 c -22.15739,-38.208356 -78.33234,-35.254549 -96.33347,5.95877 -21.7664,54.10847 33.83099,78.69483 47.33913,76.80194 44.27804,1.69348 56.18603,-38.20032 54.29103,-59.25667 h -51.31164 l -10.09638,17.48745 h 38.89711 c -6.40166,21.57311 -45.63256,33.34744 -59.58772,-0.60426 -12.36103,-25.25789 24.58004,-68.954612 57.9325,-30.78699 z"
         id="path7057"
         sodipodi:nodetypes="cccccccccc" />
      <circle
         style="fill:#171342;fill-opacity:1;stroke:#ffffff;stroke-width:4;stroke-dasharray:none"
         id="path7135"
         cx="657.36835"
         cy="129.02394"
         r="26.400667" />
      <ellipse
         style="fill:#ffffff;fill-opacity:1;stroke:#ffffff;stroke-width:4;stroke-dasharray:none"
         id="path7191"
         cx="657.86493"
         cy="128.6929"
         rx="12.331346"
         ry="11.66926" />
      <path
         style="fill:#171342;fill-opacity:1;stroke:#ffffff;stroke-width:4;stroke-dasharray:none"
         d="m 699.32801,153.27284 v -16.38662 h 12.91067 l 2.9388,-10.96776 h -16.8426 V 115.865 h 19.03497 v -12.08307 h -29.79386 v 49.15986 z"
         id="path7195" />
      <path
         style="fill:#171342;fill-opacity:1;stroke:#ffffff;stroke-width:4;stroke-dasharray:none"
         d="m 439.6072,308.52092 h 22.47193 V 235.9553 l 51.03002,73.50195 h 21.5356 V 202.71557 h -21.5356 v 71.62929 l -49.62552,-72.56562 h -29.02625 l 5.86437,10.15738 z"
         id="path8398" />
      <path
         style="fill:#171342;fill-opacity:1;stroke:#ffffff;stroke-width:4;stroke-dasharray:none"
         d="m 546.81705,201.31107 v 109.08251 l 47.28469,-0.93633 c 43.84817,-12.12757 65.15006,-87.08056 -6.08615,-108.14618 z"
         id="path8400"
         sodipodi:nodetypes="ccccc" />
      <path
         style="fill:#ffffff;fill-opacity:1;stroke:#ffffff;stroke-width:4;stroke-dasharray:none"
         d="m 569.39369,222.79184 v 65.21544 h 16.55215 c 12.86777,3.89999 51.23457,-42.27356 1.32417,-64.8844 z"
         id="path8447"
         sodipodi:nodetypes="ccccc" />
      <path
         style="fill:#171342;fill-opacity:1;stroke:#ffffff;stroke-width:4;stroke-dasharray:none;stroke-opacity:1"
         d="m 697.50728,232.72312 17.63079,-10.17914 c -5.15416,-18.51774 -48.46478,-40.5901 -71.59078,-0.33104 -6.81895,29.64206 16.44264,41.93591 24.39218,42.24849 9.27114,1.21726 18.87331,0.54958 27.48236,9.43883 2.18394,7.84734 0.11411,12.90512 -10.90442,17.2318 -19.98865,-1.8884 -23.58915,-9.23952 -28.1699,-16.26389 l -17.22712,9.94608 c 4.89382,10.13682 6.31987,16.48084 23.67253,23.67253 10.87722,3.29494 25.21954,3.72573 37.03166,0 8.04433,-5.02958 16.50141,-9.02117 20.24567,-33.83107 -2.2376,-10.63139 -10.58213,-24.30212 -26.78557,-27.44766 -11.20393,-4.46594 -27.55061,-1.01236 -29.15265,-14.98496 9.98757,-22.8718 32.22638,-7.03285 33.37525,0.50003 z"
         id="path8449"
         sodipodi:nodetypes="cccccccccccccc" />
      <path
         style="fill:#171342;fill-opacity:1;stroke:#ffffff;stroke-width:4;stroke-dasharray:none;stroke-opacity:1"
         d="m 466.5267,74.672363 24.11052,-0.234083 0.23408,67.64988 c 4.03939,28.99992 37.30654,24.01805 39.0918,0.46817 l -0.70225,-67.415802 24.11051,-0.234083 -0.46816,75.140525 c -4.19883,36.88553 -68.21318,53.81343 -86.14241,-0.70224 z"
         id="path8543"
         sodipodi:nodetypes="ccccccccc" />
    </g>
  </g>
</svg>
